<svg width="409" height="311" viewBox="0 0 409 311" fill="none" xmlns="http://www.w3.org/2000/svg">
<path d="M125.518 132.166C131.752 129.626 132.556 123.329 127.565 117.274C123.944 112.88 119.022 109.979 114.198 107.234C110.548 105.158 108.32 102.965 107.769 98.5922C107.234 94.3414 106.435 89.9406 103.005 85.019C99.8154 104.516 105.104 121.171 112.374 137.41C108.982 138.877 108.059 136.755 107.267 135.055C96.2422 111.392 95.0498 87.3384 104.566 62.8914C105.241 61.1568 106.342 60.2667 108.285 60.152C111.889 59.9394 112.862 57.9214 111.636 54.6691C110.953 52.856 109.392 50.595 112.428 49.7908C114.975 49.1163 118.122 46.4323 120.281 50.5935C120.916 51.8193 121.5 53.0443 123.16 52.8711C125.004 52.6788 125.477 51.176 125.95 49.7395C128.126 43.1343 125.389 40.008 118.501 40.9578C131.482 21.7607 149.722 10.1953 172.585 6.54787C206.944 1.06646 235.589 11.794 258.091 38.4461C266.265 48.1273 271.809 59.2535 275.344 71.3821C276.011 73.6721 277.331 76.475 273.731 77.6319C270.6 78.638 267.035 78.4562 265.125 75.8561C261.624 71.0919 266.875 69.5596 269.324 66.9605C268.303 64.7151 267.574 62.1145 263.685 63.5505C266.074 67.7255 261.111 71.1131 263.367 76.5729C257.502 73.4817 258.066 65.6319 251.281 65.277C250.411 66.0662 250.779 70.2948 246.595 65.3871C248.068 70.1435 246.429 73.6587 250.139 75.6417C251.129 76.171 251.138 77.5766 250.462 78.3214C248.686 80.2781 246.599 79.4862 244.321 78.6156C243.98 75.2171 244.536 71.6282 242.497 68.147C240.892 69.51 240.23 71.3263 239.408 73.07C238.124 75.7946 236.359 77.978 232.887 77.2384C229.647 76.5485 227.177 74.6982 227.275 71.1988C227.412 66.3332 225.237 66.4949 221.345 67.1151C215.924 67.9788 210.409 70.293 204.786 67.6826C204.135 67.3803 203.07 67.5585 202.353 67.8714C194.184 71.437 185.689 70.3831 177.239 69.6584C171.164 69.1373 170.979 69.3181 170.5 75.5595C169.453 89.199 169.383 102.814 170.465 116.466C170.717 119.648 171.273 121.715 175.024 122.305C156.495 128.935 137.663 132.843 117.437 137.131C120.14 133.717 122.971 133.535 125.518 132.166ZM160.551 60.7528C161.153 65.1008 162.802 65.779 167.101 63.2582C165.776 60.183 162.762 60.8111 160.62 59.5894C161.133 58.4225 161.645 57.2557 162.284 55.8027C159.544 56.1584 157.149 56.4692 154.627 56.7965C154.504 61.9344 157.998 60.055 160.551 60.7528ZM163.272 120.6C166.325 121.14 166.94 119.708 166.747 116.901C165.739 102.289 165.481 87.6704 166.932 73.063C167.079 71.5886 167.45 69.3765 165.833 69.08C160.164 68.0407 154.3 65.29 148.747 66.904C138.9 69.7663 136.284 79.7748 131.18 87.237C130.82 87.7637 131.002 88.9706 131.362 89.6252C132.65 91.9709 132.579 94.2692 131.124 96.6554C136.281 99.0334 140.813 101.817 146.841 102.93C140.188 109.542 136.367 101.545 131.196 101.68C131.459 105.476 131.486 109.302 132.066 113.042C132.481 115.716 133.973 118.282 137.115 115.76C140.215 113.271 143.185 113.874 146.734 114.26C152.022 114.835 157.1 115.063 160.753 119.634C161.11 120.082 161.963 120.133 163.272 120.6ZM204.899 30.2245C207.067 32.303 210.632 29.5157 212.662 32.3729C212.415 34.2038 211.205 35.2269 209.671 35.2506C205.611 35.3133 205.765 37.3371 206.404 40.5101C207.484 45.8681 208.176 51.3236 208.699 56.7699C209.494 65.0536 209.376 65.0777 217.454 63.8988C219.589 63.5872 221.698 63.0888 223.837 62.8219C228.612 62.2262 232.554 60.2987 235.869 55.4838C230.693 56.9146 228.932 54.4968 228.82 49.7669C227.098 51.9721 226.702 55.7557 223.718 53.6171C221.56 52.0702 222.005 49.4899 224.568 47.8903C226.298 46.8102 224.233 44.5357 226.403 43.1527C230.923 44.45 231.555 50.9449 236.569 52.1044C238.076 38.8397 211.543 10.3378 199.053 11.7854C198.444 14.832 202.168 15.7713 202.34 18.6376C202.561 22.3325 203.637 25.9761 204.899 30.2245ZM176.235 65.8552C184.691 66.8139 193.155 66.6907 201.615 65.9639C203.326 65.8169 205.702 66.1948 205.524 63.3633C204.838 52.4114 203.298 41.5789 200.476 30.9607C199.913 28.8421 198.025 27.7759 196.208 28.8084C192.836 30.7258 188.64 32.5083 186.824 35.5593C183.683 40.8356 180.486 42.2764 175.108 38.4846C172.819 46.5181 172.283 54.1025 171.367 61.6509C170.922 65.3174 172.292 66.1039 176.235 65.8552ZM171.73 17.8252C167.228 17.1383 162.504 15.7605 159.841 21.7007C162.917 24.0063 163.83 27.6491 165.867 30.3987C165.126 32.3619 163.248 32.8489 162.305 34.1733C159.292 38.4067 156.212 39.4536 152.21 35.215C150.938 33.8683 148.883 33.9452 147.105 36.0265C150.367 37.3575 154.749 37.5092 153.498 43.3028C157.997 40.3511 161.031 39.8446 161.44 45.7437C161.486 46.396 162.919 46.9112 163.641 47.5651C165.856 49.5714 168.621 51.314 167.527 55.2394C169.526 46.5731 171.822 38.018 172.087 29.4005C172.198 25.7612 175.007 21.8937 171.73 17.8252ZM113.648 93.0855C113.71 94.0774 113.665 95.0901 113.853 96.0577C115.363 103.842 115.374 103.835 122.088 100.171C122.3 100.055 122.706 100.297 123.064 100.382C125.019 102.404 122.904 104.817 123.605 107.033C125.78 107.851 127.745 107.404 127.024 104.873C125.681 100.161 127.259 95.6387 127.107 91.0381C127.055 89.4428 126.741 88.1706 124.995 87.5166C121.519 86.2147 115.453 88.7358 113.648 93.0855ZM232.949 33.1383C233.079 33.2424 233.195 33.3782 233.342 33.4418C233.488 33.5047 233.751 33.5751 233.816 33.5054C236.361 30.7828 232.92 26.2358 236.898 23.9892C224.677 16.1993 222.725 15.4248 219.147 17.2835C224.325 21.928 228.814 27.0181 232.949 33.1383ZM144.41 32.0889C144.461 31.4503 143.957 30.9448 143.555 31.2378C139.316 34.3295 134.586 36.9031 131.363 41.1396C129.915 43.0438 130.454 45.3698 132.73 46.7137C134.978 48.0407 136.493 46.9557 137.59 44.9166C139.797 40.811 142.014 36.7105 144.41 32.0889ZM244.28 37.7392C243.655 35.9872 243.031 34.2351 242.215 31.9481C240.48 35.7262 240.911 38.0501 243.923 40.2212C246.28 41.9212 247.465 44.5248 245.179 47.584C242.992 46.4345 242.293 43.3935 238.616 43.4503C242.488 44.8855 241.315 52.0158 247.336 49.2263C251.145 47.4614 250.211 44.1592 250.392 41.0684C248.427 40.1518 245.896 40.6098 244.28 37.7392ZM149.036 18.8102C144.569 21.9484 140.103 25.0867 135.488 28.3288C140.052 29.729 141.12 24.8406 143.846 23.8671C145.748 24.4319 143.818 26.6827 146.139 27.1274C146.91 23.5326 149.259 20.9443 151.66 18.4115C150.632 17.6945 150.102 18.1942 149.036 18.8102ZM136.865 124.216C136.864 122.306 136.206 120.858 134.073 120.028C133.388 122.777 134.212 124.746 135.45 127.458C136.144 125.965 136.416 125.378 136.865 124.216Z" fill="#5395E9"/>
<path d="M53.2441 137.235C60.5144 143.656 69.2582 144.55 77.8855 144.683C99.6595 145.018 120.84 140.557 141.881 135.535C160.975 130.978 179.829 125.527 198.502 119.459C199.811 119.034 201.185 118.807 202.956 118.386C196.395 114.302 188.701 114.302 181.898 110.766C185.123 107.587 188.396 109.337 191.48 109.554C194.589 109.773 197.749 110.387 200.961 108.217C199.55 102.94 196.414 98.5568 194.39 93.7031C193.649 91.9267 191.238 90.0625 193.723 87.9635C196.144 85.9179 198.681 85.7082 201.451 87.6845C205.652 90.6811 210.378 93.0344 214.236 96.4C220.338 101.723 227.042 101.389 233.919 99.3961C238.012 98.2102 241.997 96.4085 246.205 93.5483C235.282 90.0719 224.876 86.8144 214.508 83.439C208.637 81.5274 205.744 78.7998 202.7 72.7564C204.021 70.7867 205.743 71.3634 206.867 72.634C213.038 79.6121 221.717 79.3587 229.785 80.6434C240.278 82.3144 250.855 83.4613 261.354 85.1046C263.817 85.4902 265.808 85.1996 268.034 84.2309C283.3 77.5876 298.663 71.1646 313.904 64.4652C322.306 60.7718 330.883 60.1367 339.764 61.8813C343.78 62.6702 344.615 64.9523 341.593 68.2088C336.906 73.26 331.121 76.9706 324.985 80.0105C317.837 83.5508 310.537 86.7825 302.913 90.33C303.899 90.753 304.559 91.0363 305.691 91.5218C302.644 94.2116 303.317 96.5839 306.549 98.4165C305.38 101.053 302.947 101.46 300.894 102.377C298.238 103.564 295.592 104.202 293.967 107.415C292.716 109.886 289.273 110.304 286.311 109.344C284.413 108.729 282.36 108.293 280.717 107.244C274.573 103.32 268.868 104.434 262.677 107.509C250.083 113.764 236.624 117.3 222.754 119.731C218.763 120.431 214.622 122.321 210.891 125.186C206.971 128.194 201.518 129.298 196.636 130.943C168.527 140.416 139.803 147.432 110.378 151.175C94.0482 153.252 77.5508 154.566 61.3158 150.257C53.8237 148.269 47.1754 144.783 45.543 136.115C44.2765 129.39 47.0875 123.696 50.289 118.079C49.7975 124.678 47.4839 131.341 53.2441 137.235Z" fill="#203C4A"/>
<path d="M142.416 174.154C136.115 169.014 129.123 164.696 123.735 158.468C122.576 157.128 120.951 156.099 120.602 153.978C123.651 151.699 125.199 154.158 126.834 155.794C136.538 165.497 147.891 172.513 162.119 177.479C152.28 169.646 145.262 161.169 140.185 150.938C143.04 148.506 144.193 150.548 145.288 152.404C148.178 157.301 151.553 161.838 155.392 166.019C156.819 167.572 158.118 169.389 160.392 169.933C161.305 165.094 155.289 152.805 149.299 148.277C164.234 144.135 178.544 140.167 192.659 136.252C193.899 137.92 193.388 139.073 192.599 139.892C189.629 142.975 187.747 146.498 187.136 150.797C186.899 152.463 185.517 153.587 183.811 154.228C179.303 155.921 176.783 160.058 177.881 164.779C179.013 169.644 180.783 174.363 183.813 178.435C187.106 182.861 190.01 182.783 193.179 178.08C198.22 170.598 200.161 161.939 201.991 153.314C203.264 147.308 204.058 141.2 205.038 135.134C205.297 133.53 205.093 131.677 208.813 131.245C207.568 148.347 204.803 164.654 196.828 180.794C204.398 178.922 210.389 175.581 215.746 171.145C226.965 161.855 234.031 149.75 239.074 136.266C240.33 132.906 239.026 131.764 236.066 131.052C230.33 129.673 224.629 128.153 219.036 125.847C226.799 122.248 233.762 127.677 241.151 128.044C242.529 126.331 242.544 124.354 243.099 122.096C239.258 121.595 235.8 126.065 232.349 122.487C232.624 121.383 233.401 121.069 234.234 120.933C246.21 118.981 257.095 113.856 268.062 109.068C271.131 107.728 273.694 108.527 275.973 109.803C278.326 111.12 276.876 113.808 276.439 115.775C268.186 152.895 236.429 181.396 198.561 185.305C179.026 187.322 160.479 183.43 142.731 174.201C142.392 174.129 142.416 174.154 142.416 174.154ZM241.249 147.595C243.132 144.663 245.146 141.805 246.834 138.765C247.555 137.466 248.664 135.567 246.343 134.509C243.817 133.357 243.626 135.629 243.121 137.056C237.721 152.321 229.364 165.596 217 176.296C222.45 173.05 229.967 173.989 232.444 165.016C234.004 159.366 237.805 153.727 241.249 147.595ZM170.867 176.109C173.017 178.838 175.8 180.073 179.984 180.089C177.304 175.898 176.777 171.328 173.378 167.887C171.123 170.422 168.686 172.184 170.867 176.109Z" fill="#3F72C1"/>
<path d="M311.088 219.272C316.867 219.456 322.184 219.624 327.501 219.79C328.167 219.811 328.835 219.796 329.499 219.838C338.088 220.375 343.028 223.876 343.595 229.818C344.159 235.726 340.7 239.289 331.016 242.074C338.541 245.28 340.639 251.149 340.815 258.132C340.863 260.004 341.551 261.917 343.563 262.49C346.262 263.259 346.849 260.099 349.01 259.154C349.655 261.053 348.584 262.353 347.645 263.57C343.882 268.448 338.492 267.773 333.395 267.297C328.887 266.875 326.433 263.651 325.299 259.497C324.466 256.446 323.961 253.316 324.075 250.119C324.155 247.894 323.636 245.809 322.285 244.008C321.426 242.863 320.247 242.296 318.788 242.598C317.134 242.94 316.815 244.239 316.813 245.638C316.809 250.135 316.65 254.645 316.949 259.123C317.151 262.153 318.307 264.932 321.77 266.182C313.541 266.182 305.312 266.182 295.379 266.182C300.905 263.816 301.249 260.29 301.179 256.349C301.019 247.357 301.15 238.359 301.12 229.363C301.108 225.743 301.721 221.781 295.074 220.697C301.387 218.51 306.059 219.543 311.088 219.272ZM316.914 223.542C316.876 228.2 316.828 232.859 316.804 237.518C316.795 239.399 317.34 240.783 319.627 240.728C323.464 240.637 326.723 237.19 327.11 232.727C327.667 226.296 325.612 222.355 321.241 221.622C319.757 221.372 318.215 221.269 316.914 223.542Z" fill="#203C4A"/>
<path d="M234.276 248.684C234.189 241.569 234.146 234.908 234.127 228.246C234.118 225.174 234.192 222.086 230.283 220.51C238.198 218.353 245.819 219.474 254.536 219.975C250.065 222.884 249.84 226.653 249.915 230.567C250.093 239.876 249.15 249.21 250.661 258.49C251.341 262.666 252.851 265.831 257.82 265.775C262.731 265.719 264.819 262.536 264.941 258.401C265.265 247.419 265.083 236.423 265.204 225.433C265.228 223.188 263.833 221.908 261.834 220.113C270.239 218.595 277.896 219.353 285.906 220.356C281.85 222.044 281.551 225.278 281.483 228.855C281.342 236.168 281.93 243.486 280.849 250.798C279.451 260.251 274.63 265.84 265.427 267.24C260.334 268.014 255.093 268.024 249.99 267.163C239.934 265.465 235.407 258.748 234.276 248.684Z" fill="#203C4A"/>
<path d="M89.7196 242.895C94.5969 250.765 97.8204 259.254 104.815 266.13C95.7454 266.13 87.2798 266.13 78.5946 266.13C82.0852 260.908 79.577 253.486 72.428 246.911C67.8651 251.438 68.7056 261.836 74.6699 266.014C65.6702 266.014 57.3918 266.014 49.1133 266.014C55.1998 264.633 54.0714 259.764 54.0923 255.509C54.1366 246.523 54.0672 237.535 54.1231 228.549C54.1447 225.066 53.9708 221.797 49.5909 220.428C57.884 218.757 65.8462 218.894 74.047 220.015C66.5255 227.284 71.2158 235.986 70.1809 244.094C75.5118 240.598 80.6002 236.818 83.5466 231.383C85.6772 227.453 84.4139 223.209 78.8312 220.454C86.6677 218.026 93.4448 220.117 100.439 220.322C96.7026 223.356 93.202 226.516 89.4904 229.273C84.9012 232.682 84.7864 235.887 88.0378 239.99C88.6509 240.764 89.0479 241.709 89.7196 242.895Z" fill="#203C4A"/>
<path d="M355.508 241.417C358.853 219.64 383.777 210.316 400.935 224.026C407.863 229.562 410.549 241.761 407.208 252.653C404.353 261.957 397.395 266.227 388.314 267.291C383.89 267.809 379.269 267.801 374.869 267.144C361.879 265.205 356.292 257.69 355.508 241.417ZM371.764 237.981C371.526 244.464 371.768 250.93 372.811 257.333C373.523 261.709 375.345 265.279 380.462 265.769C386.002 266.3 389.31 264.724 390.473 259.83C393.111 248.719 393.08 237.472 390.423 226.353C389.485 222.425 386.696 220.415 382.34 220.399C377.896 220.381 374.855 222.097 373.72 226.331C372.783 229.83 372.408 233.48 371.764 237.981Z" fill="#203C4A"/>
<path d="M205.71 235.637C205.716 242.31 205.716 248.549 205.716 254.788C202.722 252.455 202.427 248.803 199.712 246.769C198.116 245.574 196.461 244.042 194.341 244.811C192.087 245.63 192.831 247.892 192.786 249.619C192.697 253.113 192.931 256.62 192.735 260.104C192.493 264.398 194.559 265.395 198.278 264.482C206.316 262.51 212.31 257.875 216.428 250.706C217.118 249.505 217.325 247.831 219.307 247.188C220.274 253.11 219.477 258.797 218.561 264.475C218.288 266.17 216.93 266.445 215.545 266.446C201.423 266.465 187.3 266.457 172.859 266.098C177.225 263.497 177.232 259.553 177.163 255.398C177.018 246.743 177.133 238.085 177.119 229.428C177.114 225.942 177.607 222.236 173 220.871C174.815 218.854 176.571 219.237 178.174 219.231C189.494 219.193 200.814 219.163 212.134 219.217C218.602 219.249 218.876 219.421 218.665 226.077C218.531 230.322 219.937 234.538 219.06 238.868C216.666 238.663 216.992 236.679 216.407 235.501C212.65 227.938 206.359 223.659 198.418 221.672C194.987 220.814 192.512 221.739 192.745 226.13C192.948 229.948 192.753 233.786 192.789 237.615C192.803 239.072 192.501 240.787 194.274 241.501C195.859 242.14 197.143 241.138 198.421 240.351C201.774 238.285 202.59 234.483 204.479 231.226C206.363 232.247 205.404 233.922 205.71 235.637Z" fill="#203C4A"/>
<path d="M176.256 0.767545C206.058 -2.71121 231.676 5.65758 253.512 25.4171C266.546 37.2116 275.236 51.8428 280.127 68.7024C280.709 70.7074 282.355 73.0428 278.764 75.7558C267.829 36.9942 243.247 12.6743 203.801 4.79587C185.843 1.20918 167.887 3.04371 151.708 11.4668C97.6434 39.6146 85.8612 83.5011 106.075 138.893C103.098 139.563 102.435 137.307 101.622 135.429C89.622 107.736 89.3283 79.9453 102.932 52.9339C117.967 23.0806 142.584 5.69003 176.256 0.767545Z" fill="#203C4A"/>
<path d="M34.5898 263.418C27.1539 268.708 19.1871 267.983 11.1992 266.909C7.79113 266.45 4.5165 264.656 0.42196 266.456C-0.266531 259.81 1.50143 253.827 1.27926 246.537C4.45525 249.502 4.88221 252.37 6.03106 254.814C9.87403 262.988 14.483 266.268 21.508 265.784C25.1741 265.532 28.0384 264.044 28.9107 260.279C29.7712 256.566 27.5463 254.128 24.4978 252.745C20.5692 250.963 16.3843 249.754 12.391 248.102C8.05775 246.31 3.79003 244.295 1.62948 239.706C-2.87948 230.129 2.3104 220.658 12.9895 218.85C17.6459 218.061 22.2084 218.388 26.7972 219.469C29.81 220.179 32.8091 221.85 36.3232 219.505C37.111 225.85 36.66 231.365 35.2895 237.285C32.6757 235.712 32.5884 233.037 31.631 230.949C27.96 222.945 23.9555 220.077 17.0093 220.467C14.2765 220.621 11.9555 221.513 11.0436 224.151C10.0376 227.062 10.8413 229.764 13.3128 231.772C15.8219 233.81 18.8836 234.701 21.8612 235.764C24.6775 236.769 27.5049 237.752 30.2775 238.869C40.7667 243.094 42.2777 256.996 34.5898 263.418Z" fill="#203C4A"/>
<path d="M144.724 248.425C144.73 251.878 144.766 254.872 144.732 257.865C144.691 261.481 145.44 264.546 149.785 265.667C141.126 266.923 132.594 266.403 123.191 266.382C129.013 262.665 131.377 251.697 127.975 245.471C124.152 238.474 119.817 231.757 115.707 224.916C114.504 222.912 112.53 221.756 110.582 220.208C119.557 218.968 128.36 218.928 138.66 219.995C133.537 223.237 135.142 226.079 137.03 229.081C139.227 232.576 141.21 236.205 143.322 239.837C149.621 234.056 149.54 227.543 142.946 219.953C149.957 218.541 156.599 219.458 164.479 219.998C153.081 226.806 146.509 235.788 144.724 248.425Z" fill="#203C4A"/>
<path d="M142.377 174.124C150.918 180.71 161.027 183.691 171.331 185.601C212.947 193.313 253.61 172.397 271.738 134.202C274.452 128.485 276.527 122.489 277.926 116.291C278.325 114.525 278.497 112.677 280.308 111.281C283.36 112.422 281.941 114.911 281.556 116.646C277.75 133.788 269.832 148.825 257.659 161.479C239.462 180.396 216.988 190.525 190.896 190.976C161.207 191.49 135.994 180.537 116.227 157.955C115.487 157.11 114.503 156.311 114.868 154.626C117.322 153.133 118.605 155.114 119.982 156.643C126.271 163.631 133.342 169.632 142.074 174.069C142.415 174.158 142.392 174.133 142.377 174.124Z" fill="#203C4A"/>
<path d="M221.086 94.4522C224.268 89.9051 227.27 89.9767 234.055 94.4022C228.622 97.9835 223.649 98.1388 221.086 94.4522Z" fill="#5395E9"/>
<path d="M361.378 307.491H369.144V309.999H358.672V292.773H361.378V307.491Z" fill="#203C4A"/>
<path d="M327.582 309.999L334.6 292.773H337.79L344.764 309.999H341.948L340.386 305.951H331.938L330.354 309.999H327.582ZM336.162 295.369L332.906 303.553H339.44L336.162 295.369Z" fill="#203C4A"/>
<path d="M310.917 309.999L302.029 296.733V309.999H299.367V292.773H302.557L311.049 305.467V292.773H313.733V309.999H310.917Z" fill="#203C4A"/>
<path d="M266.754 301.419C266.754 298.933 267.612 296.821 269.35 295.105C271.088 293.389 273.178 292.531 275.62 292.531C278.084 292.531 280.174 293.367 281.868 295.061C283.584 296.755 284.442 298.845 284.442 301.353C284.442 303.861 283.584 305.973 281.846 307.667C280.108 309.361 278.018 310.197 275.554 310.197C273.09 310.197 271 309.361 269.306 307.711C267.612 306.039 266.754 303.949 266.754 301.419ZM275.598 307.689C277.27 307.689 278.678 307.073 279.844 305.841C281.01 304.609 281.604 303.113 281.604 301.353C281.604 299.593 281.01 298.097 279.844 296.887C278.678 295.655 277.27 295.039 275.598 295.039C273.904 295.039 272.496 295.655 271.33 296.887C270.164 298.097 269.592 299.593 269.592 301.353C269.592 303.113 270.164 304.609 271.33 305.841C272.496 307.073 273.904 307.689 275.598 307.689Z" fill="#203C4A"/>
<path d="M249.148 309.999V292.773H251.854V309.999H249.148Z" fill="#203C4A"/>
<path d="M221.205 295.281V292.773H234.845V295.281H229.367V309.999H226.661V295.281H221.205Z" fill="#203C4A"/>
<path d="M193.486 309.999L200.504 292.773H203.694L210.668 309.999H207.852L206.29 305.951H197.842L196.258 309.999H193.486ZM202.066 295.369L198.81 303.553H205.344L202.066 295.369Z" fill="#203C4A"/>
<path d="M176.82 309.999L167.932 296.733V309.999H165.27V292.773H168.46L176.952 305.467V292.773H179.636V309.999H176.82Z" fill="#203C4A"/>
<path d="M137.797 309.999V292.773H144.265C146.267 292.773 147.763 293.279 148.709 294.291C149.655 295.303 150.139 296.557 150.139 298.075C150.139 300.473 148.797 302.233 146.487 303.003L150.579 309.999H147.521L143.781 303.465H140.503V309.999H137.797ZM140.503 295.281V301.023H143.979C146.377 301.023 147.389 299.725 147.389 298.141C147.389 296.821 146.795 295.281 143.979 295.281H140.503Z" fill="#203C4A"/>
<path d="M122.571 295.215H114.255V300.011H121.823V302.453H114.255V307.535H122.659V309.999H111.549V292.773H122.571V295.215Z" fill="#203C4A"/>
<path d="M83.6055 295.281V292.773H97.2455V295.281H91.7675V309.999H89.0615V295.281H83.6055Z" fill="#203C4A"/>
<path d="M66.4992 309.999L57.6112 296.733V309.999H54.9492V292.773H58.1392L66.6312 305.467V292.773H69.3152V309.999H66.4992Z" fill="#203C4A"/>
<path d="M36.1992 309.999V292.773H38.9052V309.999H36.1992Z" fill="#203C4A"/>
</svg>
